<?xml version="1.0" standalone="no"?>
<!DOCTYPE svg PUBLIC "-//W3C//DTD SVG 20010904//EN"
 "http://www.w3.org/TR/2001/REC-SVG-20010904/DTD/svg10.dtd">
<svg version="1.0" xmlns="http://www.w3.org/2000/svg"
 width="507.000000pt" height="768.000000pt" viewBox="0 0 507.000000 768.000000"
 preserveAspectRatio="xMidYMid meet">

<g transform="translate(0.000000,768.000000) scale(0.100000,-0.100000)"
fill="#000000" stroke="none">
<path d="M2298 7358 c-60 -16 -88 -49 -88 -105 0 -26 -7 -57 -15 -67 -21 -28
-21 -280 0 -316 12 -21 14 -139 15 -740 l0 -715 -86 -29 c-162 -55 -321 -173
-387 -286 -61 -105 -57 41 -55 -2347 l3 -2182 30 -31 c39 -41 89 -66 167 -85
90 -21 1200 -22 1299 -1 81 17 134 44 174 86 l30 31 3 2182 c2 2389 6 2242
-55 2347 -67 115 -223 230 -387 286 l-86 29 0 715 c1 601 3 719 15 740 21 36
21 288 0 316 -8 10 -15 41 -15 67 0 58 -28 89 -95 106 -54 14 -415 13 -467 -1z"/>
</g>
</svg>
