<svg width="70" height="18" viewBox="0 0 70 18" fill="none" xmlns="http://www.w3.org/2000/svg">
<path fill-rule="evenodd" clip-rule="evenodd" d="M36.2929 17.7364C36.4804 17.9052 36.7348 18 37 18H41C41.2652 18 41.5196 17.9052 41.7071 17.7364C41.8946 17.5676 42 17.3387 42 17.1V8.1C42 6.3 41 4.725 40 4.5V0.45C40 0.330653 39.9473 0.216193 39.8536 0.131802C39.7598 0.0474107 39.6326 0 39.5 0H38.5C38.3674 0 38.2402 0.0474107 38.1464 0.131802C38.0527 0.216193 38 0.330653 38 0.45V4.5C37 4.725 36 6.3 36 8.1V17.1C36 17.3387 36.1054 17.5676 36.2929 17.7364ZM14.6015 8.22635V7H15.6972V8.22635H14.6015ZM14.6015 17.777V9.75H15.6972V17.777H14.6015ZM3.10064 17.777L0 7.07432H1.14038L3.65219 15.9115L6.1491 7.08176L7.29693 7.07432L9.80874 15.9115L12.3056 7.07432H13.4535L10.3603 17.777H9.25718L6.72301 8.99932L4.20375 17.777H3.10064ZM23.7454 13.6818V17.777H24.8485V13.3622C24.8485 13.0005 24.8137 12.6387 24.7442 12.277C24.6746 11.9104 24.5628 11.566 24.4088 11.2439C24.2547 10.9169 24.051 10.627 23.7976 10.3743C23.5491 10.1216 23.2435 9.92095 22.8808 9.7723C22.523 9.62365 22.1032 9.54932 21.6212 9.54932C20.9653 9.54932 20.3839 9.69302 19.8771 9.98041C19.4942 10.1975 19.1737 10.4924 18.9156 10.865V9.75H17.9243V17.777H19.0274V13.4959C19.0274 13.0401 19.0795 12.6338 19.1839 12.277C19.2882 11.9203 19.4398 11.618 19.6386 11.3703C19.8423 11.1176 20.0907 10.9243 20.3839 10.7905C20.682 10.6568 21.0249 10.5899 21.4125 10.5899C21.8348 10.5899 22.1926 10.6667 22.4858 10.8203C22.7839 10.9739 23.0249 11.1919 23.2088 11.4743C23.3976 11.7518 23.5342 12.0788 23.6187 12.4554C23.7032 12.827 23.7454 13.2358 23.7454 13.6818ZM30.1452 18C29.3601 18 28.6794 17.8266 28.103 17.4797C27.5316 17.1329 27.0868 16.6448 26.7688 16.0155C26.4508 15.3863 26.2918 14.648 26.2918 13.8007C26.2918 12.9236 26.4483 12.1655 26.7614 11.5264C27.0744 10.8872 27.5142 10.3941 28.0806 10.0473C28.6521 9.70045 29.3254 9.52703 30.1005 9.52703C30.8956 9.52703 31.5738 9.71036 32.1353 10.077C32.6968 10.4387 33.1217 10.959 33.4099 11.6378C33.6981 12.3167 33.8297 13.1268 33.8049 14.0682H33.2161H32.6869H27.4618C27.504 14.9335 27.7301 15.6173 28.1403 16.1196C28.6024 16.6745 29.2558 16.952 30.1005 16.952C30.6769 16.952 31.1788 16.8207 31.6061 16.5581C32.0384 16.2905 32.3788 15.9065 32.6272 15.4061L33.6484 15.8C33.3303 16.4986 32.8608 17.0412 32.2397 17.4277C31.6235 17.8092 30.9254 18 30.1452 18ZM32.0086 11.3257C32.3645 11.7622 32.5807 12.3716 32.657 13.1541H27.4836C27.5584 12.4095 27.7772 11.8149 28.1403 11.3703C28.6024 10.8104 29.2657 10.5304 30.1303 10.5304C30.9552 10.5304 31.5813 10.7955 32.0086 11.3257ZM45.5182 7.07432V17.777H50.0052C50.6362 17.777 51.1903 17.6556 51.6673 17.4128C52.1443 17.17 52.5145 16.8257 52.7779 16.3797C53.0412 15.9288 53.1729 15.3937 53.1729 14.7743C53.1729 14.0707 52.9741 13.4712 52.5766 12.9757C52.2723 12.5964 51.8807 12.3042 51.4017 12.0991C51.7139 11.9211 51.9763 11.6782 52.189 11.3703C52.4971 10.9194 52.6512 10.4065 52.6512 9.83176C52.6512 9.32635 52.5269 8.86554 52.2785 8.44932C52.03 8.02815 51.6822 7.69369 51.235 7.44595C50.7878 7.1982 50.2636 7.07432 49.6623 7.07432H45.5182ZM49.7369 16.7291H46.6213V12.6709H49.9381C50.3406 12.6709 50.6984 12.7676 51.0114 12.9608C51.3294 13.1491 51.5803 13.4018 51.7642 13.7189C51.9481 14.036 52.04 14.3928 52.04 14.7892C52.04 15.1955 51.9381 15.5423 51.7344 15.8297C51.5356 16.1171 51.2623 16.3401 50.9145 16.4986C50.5667 16.6523 50.1741 16.7291 49.7369 16.7291ZM49.6549 11.6378H46.6213V8.10743H49.6549C50.1965 8.10743 50.6412 8.26599 50.989 8.58311C51.3418 8.90022 51.5182 9.31149 51.5182 9.81689C51.5182 10.1736 51.4338 10.4883 51.2648 10.7608C51.1008 11.0333 50.8772 11.2489 50.594 11.4074C50.3108 11.561 49.9977 11.6378 49.6549 11.6378ZM58.0218 18C57.2218 18 56.5386 17.8191 55.9721 17.4574C55.4057 17.0957 54.9709 16.5953 54.6678 15.9561C54.3647 15.3169 54.2131 14.5836 54.2131 13.7561C54.2131 12.9137 54.3672 12.1755 54.6752 11.5412C54.9833 10.907 55.4206 10.414 55.987 10.0622C56.5585 9.70541 57.2367 9.52703 58.0218 9.52703C58.8268 9.52703 59.5125 9.70788 60.079 10.0696C60.6504 10.4264 61.0852 10.9243 61.3833 11.5635C61.6865 12.1977 61.838 12.9286 61.838 13.7561C61.838 14.5984 61.6865 15.3392 61.3833 15.9784C61.0802 16.6126 60.643 17.1081 60.0715 17.4649C59.5001 17.8216 58.8169 18 58.0218 18ZM58.0218 16.952C58.9163 16.952 59.5821 16.6572 60.0194 16.0676C60.4566 15.473 60.6753 14.7025 60.6753 13.7561C60.6753 12.7849 60.4541 12.0119 60.0119 11.4372C59.5746 10.8624 58.9113 10.575 58.0218 10.575C57.4206 10.575 56.9237 10.7113 56.5311 10.9838C56.1436 11.2514 55.8529 11.6255 55.6591 12.1061C55.4703 12.5818 55.3759 13.1318 55.3759 13.7561C55.3759 14.7223 55.5995 15.4977 56.0467 16.0824C56.4939 16.6622 57.1523 16.952 58.0218 16.952ZM65.5876 13.7189L62.4422 17.777H63.7615L66.2285 14.5588L68.6807 17.777H70L66.8472 13.7189L69.9255 9.75H68.6136L66.2285 12.8791L63.8211 9.75H62.5093L65.5876 13.7189Z" fill="white"/>
</svg>
