<svg width="20" height="20" viewBox="0 0 20 20" fill="none" xmlns="http://www.w3.org/2000/svg">
<g id="ph:sliders">
<path id="Vector" d="M8.70312 14.9192H3.625C3.45924 14.9192 3.30027 14.984 3.18306 15.0994C3.06585 15.2147 3 15.3712 3 15.5344C3 15.6975 3.06585 15.854 3.18306 15.9694C3.30027 16.0848 3.45924 16.1496 3.625 16.1496H8.70312C8.84081 16.6789 9.15356 17.1481 9.59207 17.4831C10.0306 17.8181 10.5699 18 11.125 18C11.6801 18 12.2194 17.8181 12.6579 17.4831C13.0964 17.1481 13.4092 16.6789 13.5469 16.1496H17.375C17.5408 16.1496 17.6997 16.0848 17.8169 15.9694C17.9342 15.854 18 15.6975 18 15.5344C18 15.3712 17.9342 15.2147 17.8169 15.0994C17.6997 14.984 17.5408 14.9192 17.375 14.9192H13.5469C13.4092 14.3899 13.0964 13.9207 12.6579 13.5856C12.2194 13.2506 11.6801 13.0688 11.125 13.0688C10.5699 13.0688 10.0306 13.2506 9.59207 13.5856C9.15356 13.9207 8.84081 14.3899 8.70312 14.9192ZM12.375 15.5344C12.375 15.7777 12.3017 16.0156 12.1643 16.218C12.027 16.4203 11.8318 16.578 11.6034 16.6711C11.3749 16.7642 11.1236 16.7886 10.8811 16.7411C10.6387 16.6937 10.4159 16.5765 10.2411 16.4044C10.0663 16.2323 9.94725 16.0131 9.89902 15.7744C9.85079 15.5357 9.87554 15.2884 9.97015 15.0635C10.0648 14.8387 10.225 14.6465 10.4305 14.5113C10.6361 14.3761 10.8778 14.304 11.125 14.304C11.4565 14.304 11.7745 14.4336 12.0089 14.6644C12.2433 14.8951 12.375 15.2081 12.375 15.5344ZM4.95312 9.38239H3.625C3.45924 9.38239 3.30027 9.4472 3.18306 9.56258C3.06585 9.67795 3 9.83443 3 9.99759C3 10.1607 3.06585 10.3172 3.18306 10.4326C3.30027 10.548 3.45924 10.6128 3.625 10.6128H4.95312C5.09081 11.1421 5.40356 11.6113 5.84207 11.9463C6.28057 12.2814 6.81989 12.4632 7.375 12.4632C7.93011 12.4632 8.46943 12.2814 8.90793 11.9463C9.34644 11.6113 9.65919 11.1421 9.79688 10.6128H17.375C17.5408 10.6128 17.6997 10.548 17.8169 10.4326C17.9342 10.3172 18 10.1607 18 9.99759C18 9.83443 17.9342 9.67795 17.8169 9.56258C17.6997 9.4472 17.5408 9.38239 17.375 9.38239H9.79688C9.65919 8.85306 9.34644 8.3839 8.90793 8.04886C8.46943 7.71382 7.93011 7.53197 7.375 7.53197C6.81989 7.53197 6.28057 7.71382 5.84207 8.04886C5.40356 8.3839 5.09081 8.85306 4.95312 9.38239ZM8.625 9.99759C8.625 10.2409 8.55169 10.4788 8.41434 10.6812C8.27699 10.8835 8.08176 11.0412 7.85335 11.1343C7.62495 11.2275 7.37361 11.2518 7.13114 11.2043C6.88866 11.1569 6.66593 11.0397 6.49112 10.8676C6.3163 10.6955 6.19725 10.4763 6.14902 10.2376C6.10079 9.99895 6.12554 9.75156 6.22015 9.52673C6.31476 9.30191 6.47498 9.10975 6.68054 8.97455C6.8861 8.83935 7.12777 8.76719 7.375 8.76719C7.70652 8.76719 8.02446 8.89682 8.25888 9.12757C8.4933 9.35831 8.625 9.67127 8.625 9.99759ZM13.625 2C13.0707 2.00052 12.5323 2.18197 12.0941 2.51595C11.6558 2.84993 11.3425 3.31756 11.2031 3.8456H3.625C3.45924 3.8456 3.30027 3.91041 3.18306 4.02578C3.06585 4.14116 3 4.29764 3 4.4608C3 4.62396 3.06585 4.78044 3.18306 4.89581C3.30027 5.01118 3.45924 5.076 3.625 5.076H11.2031C11.3408 5.60532 11.6536 6.07449 12.0921 6.40952C12.5306 6.74456 13.0699 6.92642 13.625 6.92642C14.1801 6.92642 14.7194 6.74456 15.1579 6.40952C15.5964 6.07449 15.9092 5.60532 16.0469 5.076H17.375C17.5408 5.076 17.6997 5.01118 17.8169 4.89581C17.9342 4.78044 18 4.62396 18 4.4608C18 4.29764 17.9342 4.14116 17.8169 4.02578C17.6997 3.91041 17.5408 3.8456 17.375 3.8456H16.0469C15.9075 3.31756 15.5942 2.84993 15.1559 2.51595C14.7177 2.18197 14.1793 2.00052 13.625 2ZM14.875 4.4608C14.875 4.70415 14.8017 4.94203 14.6643 5.14437C14.527 5.34671 14.3318 5.50441 14.1034 5.59754C13.8749 5.69066 13.6236 5.71503 13.3811 5.66755C13.1387 5.62008 12.9159 5.50289 12.7411 5.33082C12.5663 5.15874 12.4472 4.93951 12.399 4.70084C12.3508 4.46216 12.3755 4.21477 12.4701 3.98994C12.5648 3.76512 12.725 3.57296 12.9305 3.43776C13.1361 3.30256 13.3778 3.2304 13.625 3.2304C13.9565 3.2304 14.2745 3.36003 14.5089 3.59077C14.7433 3.82152 14.875 4.13447 14.875 4.4608Z" fill="#B5B2B4"/>
</g>
</svg>
